<svg xmlns="http://www.w3.org/2000/svg" viewBox="0 0 124.06 26.32"><g id="Layer_2" data-name="Layer 2"><g id="Layer_1-2" data-name="Layer 1"><path d="M6,27.66v.92a1.53,1.53,0,0,1-.47,1.13,1.58,1.58,0,0,1-1.14.46,1.5,1.5,0,0,1-1.12-.46,1.56,1.56,0,0,1-.46-1.13V5.65A1.64,1.64,0,0,1,3.22,4.5,1.51,1.51,0,0,1,4.34,4,1.56,1.56,0,0,1,6,5.65v8.66a8,8,0,0,1,6-2.69,8.11,8.11,0,0,1,4.12,1.12A8.43,8.43,0,0,1,19.2,16a10,10,0,0,1,1.2,5,10,10,0,0,1-1.2,5,8.43,8.43,0,0,1-3.15,3.25,8.11,8.11,0,0,1-4.12,1.12A8,8,0,0,1,6,27.66Zm9.69-2A6.55,6.55,0,0,0,17.22,21a6.54,6.54,0,0,0-1.58-4.69,5.45,5.45,0,0,0-4.16-1.66,6.63,6.63,0,0,0-3,.72A8.48,8.48,0,0,0,6,17.28v7.41a8.48,8.48,0,0,0,2.5,1.93,6.63,6.63,0,0,0,3,.72A5.45,5.45,0,0,0,15.64,25.68Z" transform="translate(-2.76 -4.03)" style="fill:#333"/><path d="M27.6,29.43a5.9,5.9,0,0,1-2.17-2.51,8,8,0,0,1-.76-3.5v-10a1.5,1.5,0,0,1,.48-1.13,1.55,1.55,0,0,1,1.14-.46,1.48,1.48,0,0,1,1.11.46,1.52,1.52,0,0,1,.46,1.13v9.68q0,4.31,3.85,4.31a5.53,5.53,0,0,0,3.13-.92A11.56,11.56,0,0,0,37.45,24V13.39a1.53,1.53,0,0,1,.47-1.13,1.58,1.58,0,0,1,1.14-.46,1.5,1.5,0,0,1,1.12.46,1.55,1.55,0,0,1,.45,1.13V28.54a1.6,1.6,0,0,1-.45,1.15,1.48,1.48,0,0,1-1.12.48,1.56,1.56,0,0,1-1.14-.48,1.58,1.58,0,0,1-.47-1.15V27.1a11.41,11.41,0,0,1-2.87,2.36,7.19,7.19,0,0,1-3.64.89A6,6,0,0,1,27.6,29.43Z" transform="translate(-2.76 -4.03)" style="fill:#333"/><path d="M46.62,29.71a1.55,1.55,0,0,1-.45-1.13V5.65a1.63,1.63,0,0,1,.45-1.15,1.62,1.62,0,0,1,2.27,0,1.54,1.54,0,0,1,.46,1.16V28.58a1.53,1.53,0,0,1-.47,1.13,1.58,1.58,0,0,1-1.14.46A1.5,1.5,0,0,1,46.62,29.71Z" transform="translate(-2.76 -4.03)" style="fill:#333"/><path d="M55.33,29.71a1.55,1.55,0,0,1-.45-1.13V5.65a1.63,1.63,0,0,1,.45-1.15A1.53,1.53,0,0,1,56.45,4a1.54,1.54,0,0,1,1.16.46,1.58,1.58,0,0,1,.45,1.16V28.58a1.5,1.5,0,0,1-.47,1.13,1.55,1.55,0,0,1-1.14.46A1.52,1.52,0,0,1,55.33,29.71Z" transform="translate(-2.76 -4.03)" style="fill:#333"/><path d="M64.91,27.89A9.47,9.47,0,0,1,62.51,21a11.51,11.51,0,0,1,.91-4.62,7.84,7.84,0,0,1,2.8-3.43,8,8,0,0,1,4.65-1.31,8.1,8.1,0,0,1,4.48,1.22,7.84,7.84,0,0,1,2.87,3.25,10,10,0,0,1,1,4.44,1.53,1.53,0,0,1-1.61,1.59H65.73A5.85,5.85,0,0,0,67.55,26a6.27,6.27,0,0,0,4.3,1.37,10.45,10.45,0,0,0,2.58-.28,11,11,0,0,0,2.15-.81,1.3,1.3,0,0,1,.63-.14,1.4,1.4,0,0,1,1,.39,1.26,1.26,0,0,1,.42,1,1.54,1.54,0,0,1-.91,1.31,10.85,10.85,0,0,1-6.13,1.56A8.86,8.86,0,0,1,64.91,27.89ZM76.05,19.5a5.68,5.68,0,0,0-.89-2.9,4.88,4.88,0,0,0-1.94-1.71,5.27,5.27,0,0,0-4.69,0A4.85,4.85,0,0,0,66.6,16.6a5.87,5.87,0,0,0-.87,2.9Z" transform="translate(-2.76 -4.03)" style="fill:#333"/><path d="M84.45,25.68V14.73H82a.61.61,0,0,1-.47-.19.66.66,0,0,1-.2-.48.76.76,0,0,1,.32-.6l4.76-4.7A.9.9,0,0,1,87,8.44a.61.61,0,0,1,.48.22.73.73,0,0,1,.19.49V12h4A1.33,1.33,0,0,1,93,13.35a1.38,1.38,0,0,1-.39,1,1.27,1.27,0,0,1-1,.4h-4V25.4c0,.92.21,1.5.65,1.75a3.18,3.18,0,0,0,1.62.37,4.8,4.8,0,0,0,1.4-.21l.3-.07a1.54,1.54,0,0,1,.4,0,1.27,1.27,0,0,1,.88.37,1.19,1.19,0,0,1,.38.9,1.34,1.34,0,0,1-.8,1.24,6.87,6.87,0,0,1-2.91.64C86.16,30.35,84.45,28.79,84.45,25.68Z" transform="translate(-2.76 -4.03)" style="fill:#333"/><path d="M111.32,29.71a1.55,1.55,0,0,1-.45-1.13V13.42a1.59,1.59,0,0,1,.45-1.14,1.5,1.5,0,0,1,1.12-.48,1.62,1.62,0,0,1,1.61,1.62v1.45a11.59,11.59,0,0,1,2.87-2.36,7.19,7.19,0,0,1,3.64-.89,6.05,6.05,0,0,1,3.35.92,6,6,0,0,1,2.17,2.51,8.08,8.08,0,0,1,.75,3.5v10a1.53,1.53,0,0,1-.47,1.13,1.58,1.58,0,0,1-1.14.46,1.5,1.5,0,0,1-1.12-.46,1.56,1.56,0,0,1-.46-1.13V18.9q0-4.3-3.85-4.31a5.56,5.56,0,0,0-3.13.92A11.56,11.56,0,0,0,114.05,18v10.6a1.5,1.5,0,0,1-.47,1.13,1.55,1.55,0,0,1-1.14.46A1.52,1.52,0,0,1,111.32,29.71Z" transform="translate(-2.76 -4.03)" style="fill:#333"/><polygon points="102.5 19.03 96.11 19.03 96.91 8.62 101.69 8.62 102.5 19.03" style="fill:#ff5c5c"/><path d="M101.92,30.23c.45,0,1.48-6.71,1.48-10.34,0-.7-2.66-.64-2.66,0C100.74,23.53,101.46,30.23,101.92,30.23Z" transform="translate(-2.76 -4.03)" style="fill:#cdcdcd"/><path d="M107.45,23.94H96.68a.69.69,0,0,1-.64-.82,6.22,6.22,0,0,1,12,0A.68.68,0,0,1,107.45,23.94Z" transform="translate(-2.76 -4.03)" style="fill:#ff5c5c"/><ellipse cx="99.3" cy="15.08" rx="2.87" ry="0.69" style="fill:#ff5c5c"/><rect x="99.22" y="6.69" width="2.92" height="3.85" style="fill:#00ff7f"/><ellipse cx="102.14" cy="8.62" rx="2.3" ry="1.93" style="fill:#ff5c5c"/><rect x="99.23" y="10.72" width="2.92" height="3.85" transform="translate(198.61 21.26) rotate(-180)" style="fill:#00ff7f"/><ellipse cx="96.46" cy="8.62" rx="2.3" ry="1.93" style="fill:#ff5c5c"/><ellipse cx="99.3" cy="9.63" rx="4.53" ry="1.43" style="fill:#ff5c5c"/><ellipse cx="99.3" cy="19.32" rx="6.04" ry="1.67" style="fill:#ff5c5c"/><ellipse cx="99.3" cy="7.61" rx="4.53" ry="1.43" style="fill:#ff5c5c"/></g></g></svg>