<svg xmlns="http://www.w3.org/2000/svg" viewBox="0 0 12.07 20.02"><g id="Layer_2" data-name="Layer 2"><g id="Layer_1-2" data-name="Layer 1"><polygon points="9.23 12.85 2.84 12.85 3.64 2.43 8.43 2.43 9.23 12.85" style="fill:#ff5c5c"/><path d="M5.89,20c.44,0,1.48-6.71,1.48-10.35C7.37,9,4.7,9,4.7,9.67,4.7,13.32,5.43,20,5.89,20Z" style="fill:#cdcdcd"/><path d="M11.42,13.73H.65A.69.69,0,0,1,0,12.91,5.93,5.93,0,0,1,6,8.25a5.93,5.93,0,0,1,6,4.66A.69.69,0,0,1,11.42,13.73Z" style="fill:#ff5c5c"/><ellipse cx="6.04" cy="8.89" rx="2.87" ry="0.69" style="fill:#ff5c5c"/><rect x="5.95" y="0.51" width="2.92" height="3.85" style="fill:#00ff7f"/><ellipse cx="8.88" cy="2.43" rx="2.3" ry="1.93" style="fill:#ff5c5c"/><rect x="3.2" y="0.51" width="2.92" height="3.85" transform="translate(9.31 4.87) rotate(-180)" style="fill:#00ff7f"/><ellipse cx="3.2" cy="2.43" rx="2.3" ry="1.93" style="fill:#ff5c5c"/><ellipse cx="6.04" cy="3.45" rx="4.53" ry="1.43" style="fill:#ff5c5c"/><ellipse cx="6.04" cy="13.14" rx="6.04" ry="1.67" style="fill:#ff5c5c"/><ellipse cx="6.04" cy="1.43" rx="4.53" ry="1.43" style="fill:#ff5c5c"/></g></g></svg>